# xmcd
#
# Track frame offsets: 
#        150
#        11146
#        25119
#        37956
#        47260
#        60586
#        78487
#        97376
#        114780
#        128566
#        146578
#        159068
#        175575
#        191151
#        204278
#        220168
#        235100
#        251867
#        266722
#        278124
#        292276
#        306595
#        318679
#        332615
#        346066
#
# Disc length: 4780 seconds
#
# Revision: 0
# Processed by: cddbd v1.5.1PL0 Copyright (c) Steve Scherf et al.
# Submitted via: ExactAudioCopy v0.95a5
#
DISCID=6a12aa19
DTITLE=Золотое Кольцо - Бабье лето
DYEAR=1900
DGENRE=Folklore
TTITLE0=Бабье лето
TTITLE1=Подари березка
TTITLE2=Фонарики
TTITLE3=Живет моя отрада
TTITLE4=Сорвали розу
TTITLE5=Напилася я пьяна
TTITLE6=Край ты мой,любимый
TTITLE7=Словно тысячу лет назад
TTITLE8=Костры горят далекие
TTITLE9=Деревенская дорога
TTITLE10=Доля-долюшка
TTITLE11=Анад Москвою купола
TTITLE12=Распрягайте,хлопцы,конэй
TTITLE13=Яблоневый вечер
TTITLE14=Ой вы,гуси-лебеди
TTITLE15=А кто-то третий
TTITLE16=Ой,у вишневому саду
TTITLE17=Золотое кольцо
TTITLE18=Облачко
TTITLE19=Грустная песня
TTITLE20=Кргда б имел златые горы
TTITLE21=Хризантемы
TTITLE22=Все от русских рябин
TTITLE23=Озера тихие
TTITLE24=Уходи горе
EXTD=
EXTT0=
EXTT1=
EXTT2=
EXTT3=
EXTT4=
EXTT5=
EXTT6=
EXTT7=
EXTT8=
EXTT9=
EXTT10=
EXTT11=
EXTT12=
EXTT13=
EXTT14=
EXTT15=
EXTT16=
EXTT17=
EXTT18=
EXTT19=
EXTT20=
EXTT21=
EXTT22=
EXTT23=
EXTT24=
PLAYORDER=
